PathFileType	4	(X/Y/Z)	E:\Qualisys_Data\Carbon_Farble_Plate\Data\Amateur_Runner\S2\T1\S2T1V21_c3d.trc
DataRate	CameraRate	NumFrames	NumMarkers	Units	OrigDataRate	OrigDataStartFrame	OrigNumFrames
200.000000	200.000000	4	39	mm	200.000000	0	315
Frame#	Time	LSHO			RSHO			LICST			RICST			LASIS			LHEEL			RASIS			LTROC			RTROC			SACR			LTH1			LSK4			LTH2			LTH3			RHM5			LSK2			LTH4			RTH1			LTOE			RTH2			RTH3			RTH4			LLEP			RLEP			LSK1			LSK3			RSK1			LHM5			RSK2			LFT1			RSK3			RSK4			LLME			RLME			RTOE			RHEEL			RFT1			RFT2			LFT2			
		X1	Y1	Z1	X2	Y2	Z2	X3	Y3	Z3	X4	Y4	Z4	X5	Y5	Z5	X6	Y6	Z6	X7	Y7	Z7	X8	Y8	Z8	X9	Y9	Z9	X10	Y10	Z10	X11	Y11	Z11	X12	Y12	Z12	X13	Y13	Z13	X14	Y14	Z14	X15	Y15	Z15	X16	Y16	Z16	X17	Y17	Z17	X18	Y18	Z18	X19	Y19	Z19	X20	Y20	Z20	X21	Y21	Z21	X22	Y22	Z22	X23	Y23	Z23	X24	Y24	Z24	X25	Y25	Z25	X26	Y26	Z26	X27	Y27	Z27	X28	Y28	Z28	X29	Y29	Z29	X30	Y30	Z30	X31	Y31	Z31	X32	Y32	Z32	X33	Y33	Z33	X34	Y34	Z34	X35	Y35	Z35	X36	Y36	Z36	X37	Y37	Z37	X38	Y38	Z38	X39	Y39	Z39	

1	0	-3261.270751953125	1518.739013671875	-480.7318420410156	-3297.19921875	1500.759399414062	-181.2166137695312	-3318.685302734375	1053.3125	-482.4329223632812	-3313.01708984375	1038.25927734375	-185.1591949462891	-3270.25830078125	997.0167846679688	-470.0795593261719	-3896.419189453125	443.4127807617188	-394.4695739746094	-3256.323486328125	992.2149047851562	-215.5896301269531	-3420.12060546875	957.5661010742188	-489.1796875	-3388.642333984375	931.1007080078125	-172.3374786376953	-3412.40380859375	1090.482788085938	-334.3673706054688	-3397.101318359375	698.4754638671875	-495.265869140625	-3743.873291015625	520.0592651367188	-473.4572448730469	-3472.465576171875	734.4173583984375	-498.6842956542969	-3442.593505859375	606.7001342773438	-482.8869018554688	-2942.385498046875	186.7100830078125	-180.6650238037109	-3657.01123046875	567.8148803710938	-488.4047241210938	-3517.951416015625	645.7963256835938	-476.6536865234375	-3159.25732421875	714.9953002929688	-170.1530303955078	-3891.99658203125	203.1696166992188	-427.6448974609375	-3230.90625	687.75732421875	-170.7407531738281	-3125.161376953125	622.904296875	-197.8249359130859	-3200.5673828125	598.9700317382812	-191.6342315673828	-3515.151611328125	589.8023681640625	-484.1365356445312	-3159.647705078125	574.9559326171875	-190.1438751220703	-3619.41064453125	498.2594909667969	-493.1288452148438	-3708.8056640625	451.0949096679688	-485.6440124511719	-3098.141357421875	464.7109680175781	-187.0599975585938	-3928.960693359375	259.9615783691406	-476.6970825195312	-3176.31201171875	449.6623229980469	-174.1250915527344	-3894.98486328125	428.2014770507812	-353.505615234375	-3079.433837890625	364.634521484375	-195.6682434082031	-3158.335693359375	353.4233093261719	-185.7742767333984	-3878.11669921875	395.7047119140625	-450.8852844238281	-3075.326416015625	172.1813354492188	-215.4968719482422	-2900.968017578125	232.1351623535156	-240.7477722167969	-3121.683349609375	130.4908447265625	-273.6224975585938	-3095.46044921875	115.32373046875	-303.0797119140625	-3108.08642578125	107.9647216796875	-248.4063110351562	-3916.805419921875	445.2120361328125	-404.7859802246094
2	0.005	-3239.587158203125	1517.476196289062	-478.9849548339844	-3275.788330078125	1499.496826171875	-180.1889190673828	-3297.9541015625	1052.562744140625	-481.5810546875	-3292.633056640625	1036.400146484375	-184.2292327880859	-3248.87109375	996.560302734375	-469.3693542480469	-3876.73388671875	453.4942321777344	-392.5360717773438	-3236.351806640625	990.6121215820312	-215.8445739746094	-3398.816650390625	956.3568725585938	-489.6162109375	-3368.692626953125	929.1673583984376	-172.95703125	-3392.258056640625	1088.97802734375	-334.1873474121094	-3375.101806640625	697.9380493164062	-496.8859558105469	-3721.265625	523.5596313476562	-472.0775146484375	-3450.6162109375	732.43798828125	-498.7564086914062	-3419.296630859375	605.0460815429688	-484.3210144042969	-2916.80126953125	187.4278717041016	-181.1918640136719	-3632.476806640625	568.4990234375	-487.6454772949219	-3493.812255859375	642.8171997070312	-476.9671630859375	-3139.724365234375	709.3323974609375	-167.7966918945312	-3881.216552734375	212.9082641601562	-428.5421447753906	-3213.391357421875	683.9326782226562	-169.3678894042969	-3107.642822265625	617.45166015625	-197.1193389892578	-3182.189208984375	591.5338745117188	-188.9259338378906	-3492.33740234375	587.5084838867188	-485.5958251953125	-3163.97216796875	582.8576049804688	-190.1524658203125	-3598.3408203125	498.2213745117188	-493.5609436035156	-3689.403076171875	454.4259948730469	-484.2861328125	-3078.1533203125	462.7849731445312	-186.9593658447266	-3915.375	271.5104064941406	-477.0234680175781	-3156.697509765625	446.0647888183594	-174.1803131103516	-3875.22021484375	436.5704956054688	-352.01513671875	-3058.084716796875	363.4334716796875	-194.7472076416016	-3135.881591796875	350.1203918457031	-184.4879760742188	-3858.849609375	404.306396484375	-449.3396606445312	-3050.58154296875	170.5803375244141	-215.4355926513672	-2876.052490234375	233.4005737304688	-240.8331909179688	-3096.036865234375	127.8119125366211	-272.4150695800781	-3067.579345703125	112.1848983764648	-301.5789489746094	-3081.24462890625	105.4570541381836	-246.8270263671875	-3896.743408203125	455.4891967773438	-402.5616760253906
3	0.01	-3219.23193359375	1516.53955078125	-478.2490844726562	-3254.941650390625	1497.077392578125	-178.8111724853516	-3277.343505859375	1051.675415039062	-481.3150024414062	-3273.346435546875	1034.18798828125	-184.162109375	-3228.51416015625	996.0283203125	-469.986572265625	-3856.829345703125	463.1334228515625	-392.1209106445312	-3213.97509765625	988.7814331054688	-214.7393035888672	-3377.216552734375	954.6566162109376	-489.0361938476562	-3348.159423828125	927.3428344726562	-173.7101898193359	-3371.07666015625	1087.252563476562	-333.7658081054688	-3353.248291015625	696.3311157226562	-498.3393859863281	-3698.28515625	527.3220825195312	-470.8570861816406	-3428.663818359375	729.82763671875	-498.1528930664062	-3395.734130859375	602.6929931640625	-485.7955627441406	-2892.962158203125	187.8975372314453	-181.0348663330078	-3609.139404296875	570.1517944335938	-487.7222290039062	-3471.1259765625	639.93505859375	-477.1599731445312	-3122.58642578125	704.9353637695312	-166.6188049316406	-3866.071533203125	222.1319427490234	-429.1966552734375	-3196.2841796875	679.1519775390625	-167.4631652832031	-3090.788818359375	612.0560913085938	-196.4355926513672	-3166.1015625	587.4116821289062	-188.5615692138672	-3466.30322265625	583.2008666992188	-484.1458740234375	-3124.869384765625	567.3145141601562	-189.9474334716797	-3577.14892578125	498.4580078125	-493.3483276367188	-3668.489990234375	456.9466552734375	-483.6862487792969	-3059.000732421875	461.0079345703125	-186.9339141845703	-3898.018310546875	281.6780090332031	-476.1462707519531	-3136.51904296875	442.9380493164062	-174.0056762695312	-3857.271728515625	447.8003845214844	-351.6980590820312	-3036.107666015625	361.5651245117188	-195.1485595703125	-3114.2109375	347.241455078125	-184.279052734375	-3839.563720703125	413.2040100097656	-447.8423156738281	-3027.507568359375	169.4050598144531	-215.3835601806641	-2852.993408203125	234.0697937011719	-241.15625	-3071.962890625	125.5611343383789	-271.8466796875	-3044.116455078125	109.8374099731445	-301.6775817871094	-3057.594482421875	103.1553649902344	-246.7153778076172	-3877.54541015625	465.6791687011719	-402.4909362792969
4	0.015	-3197.88623046875	1514.590698242188	-476.3802490234375	-3234.10693359375	1494.719604492188	-177.5768432617188	-3256.81884765625	1050.169311523438	-480.9132385253906	-3250.377197265625	1032.042358398438	-184.3310089111328	-3206.865234375	994.77685546875	-469.2858581542969	-3830.9091796875	469.607666015625	-388.2514953613281	-3194.009765625	986.4257202148438	-214.5112762451172	-3355.832275390625	952.7057495117188	-488.4759826660156	-3327.95166015625	924.674072265625	-174.2163543701172	-3349.771240234375	1085.492919921875	-333.5233154296875	-3331.482177734375	695.033203125	-499.9734497070312	-3674.236083984375	530.351806640625	-469.8548278808594	-3407.032470703125	726.9482421875	-498.4281616210938	-3372.484375	600.365478515625	-487.4233703613281	-2871.100830078125	187.4951934814453	-181.7079315185547	-3584.128173828125	570.5360717773438	-487.4672241210938	-3448.097900390625	636.79736328125	-477.4418334960938	-3104.18505859375	700.2500610351562	-165.2121124267578	-3852.150146484375	231.3474731445312	-428.9042663574219	-3178.839599609375	673.9482421875	-165.8420562744141	-3073.47705078125	606.986083984375	-195.8135528564453	-3151.988525390625	584.61474609375	-190.4947052001953	-3442.399658203125	580.4229736328125	-485.4634094238281	-3106.31201171875	563.80322265625	-188.3524322509766	-3554.412841796875	497.6263427734375	-494.04443359375	-3646.70458984375	459.0534362792969	-483.4357299804688	-3040.1767578125	458.6621704101562	-187.2537994384766	-3881.30029296875	292.2277221679688	-476.0340270996094	-3116.12158203125	440.0546264648438	-173.8390808105469	-3833.9208984375	456.3436584472656	-348.3636169433594	-3015.8037109375	359.580810546875	-195.4046478271484	-3094.345458984375	344.1789855957031	-184.4285888671875	-3819.0654296875	421.1856384277344	-446.539794921875	-3004.748046875	167.1578216552734	-214.375732421875	-2831.5771484375	234.1029510498047	-241.9450988769531	-3049.27587890625	122.8769454956055	-271.3494873046875	-3020.77392578125	107.0276031494141	-300.9623413085938	-3034.1083984375	100.950927734375	-245.8816375732422	-3852.313232421875	474.4815063476562	-399.1702270507812
